/* XPM */
static char *_9c80a9424f64e25cf201555b2513e0bd3m7snAKCWMxJOuU[] = {
/* columns rows colors chars-per-pixel */
"64 64 113 2 ",
"   c #262B44",
".  c #242840",
"X  c #212238",
"o  c #1D1D31",
"O  c #1A1729",
"+  c #181425",
"@  c #292E48",
"#  c #272B44",
"$  c #23253C",
"%  c #1F2035",
"&  c #1C1A2D",
"*  c #1A1728",
"=  c #191627",
"-  c #191526",
";  c #1E1E32",
":  c #22243B",
">  c #1B182A",
",  c #1B192C",
"<  c #2E3451",
"1  c #2B314D",
"2  c #272B45",
"3  c #23263D",
"4  c #1D1C2F",
"5  c #202035",
"6  c #252840",
"7  c #2B304B",
"8  c #222239",
"9  c #24253C",
"0  c #333B59",
"q  c #303855",
"w  c #2C324D",
"e  c #202136",
"r  c #292C46",
"t  c #2F3653",
"y  c #2C304B",
"u  c #384162",
"i  c #353E5E",
"p  c #343B5A",
"a  c #3A4466",
"s  c #333C5B",
"d  c #2B314C",
"f  c #1E1D31",
"g  c #262840",
"h  c #2E334F",
"j  c #363E5E",
"k  c #3A4465",
"l  c #394364",
"z  c #384263",
"x  c #374162",
"c  c #323B59",
"v  c #2D3451",
"b  c #282E48",
"n  c #242841",
"m  c #21233A",
"M  c #1E1E33",
"N  c #1A1628",
"B  c #1C192C",
"V  c #212237",
"C  c #24273E",
"Z  c #272C45",
"A  c #282D47",
"S  c #272C46",
"D  c #262B45",
"F  c #252A43",
"G  c #252942",
"H  c #323A59",
"J  c #282B45",
"K  c #2F3552",
"L  c #363F5F",
"P  c #374061",
"I  c #1D1B2E",
"U  c #201F34",
"Y  c #23243A",
"T  c #2A2F49",
"R  c #2C334E",
"E  c #2D334F",
"W  c #292F49",
"Q  c #313755",
"!  c #374060",
"~  c #25273E",
"^  c #2B2E49",
"/  c #323A58",
"(  c #313957",
")  c #2E3551",
"_  c #374161",
"`  c #323957",
"'  c #394365",
"]  c #25263D",
"[  c #2D324E",
"{  c #2F3451",
"}  c #353D5D",
"|  c #272A42",
" . c #2D314D",
".. c #1D1C30",
"X. c #24263D",
"o. c #2B2F4A",
"O. c #343C5B",
"+. c #303754",
"@. c #2C324E",
"#. c #1F1F34",
"$. c #272A43",
"%. c #2C314C",
"&. c #212339",
"*. c #22243A",
"=. c #23253B",
"-. c #262942",
";. c #262A43",
":. c #23263E",
">. c #202036",
",. c #22253B",
"<. c #252941",
"1. c #1E1D32",
"2. c #202237",
/* pixels */
"            . X o O + + + + O o X .         . X o O + + + + + + + + + + + + + + + + + + + + + + + + + + + + + + + + + + + + + + ",
"            . X o O + + + + O o X .         . X o O + + + + + + + + + + + + + + + + + + + + + + + + + + + + + + + + + + + + + + ",
"@ @ @ @ @ @ # $ % & * = - + O ; :   @ @ @ @   : ; O + - = * O > , & & , > O * = - + + + + + + + + + + - = * O O O O O O O O O O ",
"< < < < < < 1 2 3 % 4 , O - > 5 6 7 < < < < 7 6 5 > - O , 4 ; 5 8 9 9 8 5 ; 4 , O - + + + + + + + + - O , 4 o o o o o o o o o o ",
"0 0 0 0 0 0 q w 2 $ e o , = , 8 r t 0 0 0 0 t r 8 , = , o e : 6 r y y r 6 : e o , = + + + + + + + + = , o e X X X X X X X X X X ",
"u u u u u u i q 1 # 3 e 4 * & 9 y p u u u u p y 9 & * 4 e 3   7 t p p t 7   3 e 4 * + + + + + + + + * 4 e 3 . . . . . . . . . . ",
"a a a a a a u s t d # $ % & f g h j k l z u p y 9 & O ; :   d t s u x c v b n m M , * = - + - N > B f V C Z b A S D   F G n . . ",
"a a a a a a z i H t 1 2 3 % V J K L l P i s t r 8 , > 5 6 7 t H i z x c v b G 3 X M 4 , O - N I U Y g J T R E d W S F . 3 m X X ",
"a a a a a a l P i s q w 2 $ C T Q ! z i H t 7 6 5 > , 8 r t s i P l x c v b F . 3 m e o , = > U ~ ^ h K Q / ( ) d A G 3 X M o o ",
"a a a a a a k l z u i q 1 # Z R / _ u s t d   : ; O & 9 y p u z l k x c v b   F G n 3 e 4 * B Y ^ ` j L ! _ i ( E b n m M , O O ",
"j j L P z ' a a a a _ / R Z # 1 q i i q 1 # 3 e 4 * & ] [ j a a a a x c v b   F G n 3 e 4 * & ] [ j a a a a x c v b . X o O + + ",
"[ [ { ` } z a a a a ! Q T C $ 2 w q q w 2 $ e o , = & ] [ j a a a a x c v b F . 3 m e o , = & ] [ j a a a a x c v b . X o O + + ",
"] ] |  .` P a a a a L K J V % 3 2 1 1 2 3 % 4 , O - & ] [ j a a a a x c v b G 3 X M 4 , O - & ] [ j a a a a x c v b . X o O + + ",
"& & U | { L a a a a j h g f & % $ # # $ % & * = - + & ] [ j a a a a x c v b n m M , * = - + & ] [ j a a a a x c v b . X o O + + ",
"+ + & 9 y p x x x x p y 9 & * 4 e 3 3 e 4 * + - = * ..X.o.` j j j j O.+.@.A n m M , * = - + & 9 y p x x x x i q 1 # 3 e 4 * + + ",
"+ + , 8 r t c c c c t r 8 , = , o e e o , = - O , 4 #.$ $.o.[ [ [ [ %.o.@ Z G 3 X M 4 , O - , 8 r t c c c c q w 2 $ e o , = + + ",
"+ + > 5 6 7 v v v v 7 6 5 > - O , 4 4 , O - = , o e &.*.=.X.] ] ] ] ~ 6 -.;.F . 3 m e o , = > 5 6 7 v v v v 1 2 3 % 4 , O - + + ",
"+ + O ; :   b b b b   : ; O + - = * * = - + * 4 e 3 :.&.#.4 & & & & ..>.,.<.  F G n 3 e 4 * O ; :   b b b b # $ % & * = - + + + ",
"O O , 1.2.3 . . . . 3 e 4 * + - = * O O O O , M m n . X o O + - = * & % $ # @ @ @ @ # $ % & , 1.2.3 . . . . 3 2.1., O O O O O O ",
"o o 1.#.% 2.X X X X e o , = - O , 4 o o o o M X 3 G . X o O - O , 4 % 3 2 1 < < < < 1 2 3 % 1.#.% 2.X X X X 2.% #.1.o o o o o o ",
"X X 2.% #.1.o o o o 4 , O - = , o e X X X X m 3 . F . X o O = , o e $ 2 w q 0 0 0 0 q w 2 $ 2.% #.1.o o o o 1.#.% 2.X X X X X X ",
". . 3 2.1., O O O O * = - + * 4 e 3 . . . . n G F   . X o O * 4 e 3 # 1 q i u u u u i q 1 # 3 2.1., O O O O , 1.2.3 . . . . . . ",
"@ @   : ; O + + + + + - = * & % $ # @ @ @ @ b A S D . X o O * 4 e 3 Z R / _ a a a a u s t d # $ % & * = - + O ; :   @ @ @ @ @ @ ",
"< < 7 6 5 > + + + + - O , 4 % 3 2 1 < < < < E d W S . X o O = , o e C T Q ! a a a a z i H t 1 2 3 % 4 , O - > 5 6 7 < < < < < < ",
"0 0 t r 8 , + + + + = , o e $ 2 w q 0 0 0 0 ( ) d A . X o O - O , 4 V J K L a a a a l P i s q w 2 $ e o , = , 8 r t 0 0 0 0 0 0 ",
"u u p y 9 & + + + + * 4 e 3 # 1 q i u u u u i ( E b . X o O + - = * f g h j a a a a k l z u i q 1 # 3 e 4 * & 9 y p u u u u u u ",
"j j ` ^ Y B + + + + O o X . @ < 0 u a a a a u s t d # $ % & * = - + B Y ^ ` L P z ' a a a a x c v b . X o O & ] [ j a a a a a a ",
"[ [ ^ ~ U > + + + + O o X . @ < 0 u a a a a z i H t 1 2 3 % 4 , O - > U ~ ^ { ` } z a a a a x c v b . X o O & ] [ j a a a a a a ",
"] ] Y U I N + + + + O o X . @ < 0 u a a a a l P i s q w 2 $ e o , = N I U Y |  .` P a a a a x c v b . X o O & ] [ j a a a a a a ",
"& & B > N - + + + + O o X . @ < 0 u a a a a k l z u i q 1 # 3 e 4 * - N > B U | { L a a a a x c v b . X o O & ] [ j a a a a a a ",
"+ + + - = * O O O O , 1.2.3 # 1 q i u z l k a a a a x c v b . X o O + + + + B Y ^ ` j j j j p t 7   3 2.1., ..X.o.` j j j j j j ",
"+ + - O , 4 o o o o 1.#.% 2.$ 2 w q s i P l a a a a x c v b . X o O + + + + > U ~ ^ [ [ [ [ y r 6 : 2.% #.1.#.$ $.o.[ [ [ [ [ [ ",
"+ + = , o e X X X X 2.% #.1.% 3 2 1 t H i z a a a a x c v b . X o O + + + + N I U Y ] ] ] ] 9 8 5 ; 1.#.% 2.&.*.=.X.] ] ] ] ] ] ",
"+ + * 4 e 3 . . . . 3 2.1., & % $ # d t s u a a a a x c v b . X o O + + + + - N > B & & & & & , > O , 1.2.3 :.&.#.4 & & & & & & ",
"+ + O ; :   @ @ @ @ # $ % & , M m n A @.+.O.j L ! _ i ( E b n m M , * = - + + - = * O O O O O > , & f V C Z # $ % & * = - + + + ",
"+ + > 5 6 7 < < < < 1 2 3 % M X 3 G Z @ o.%.h K Q / ( ) d A G 3 X M 4 , O - - O , 4 o o o o ; 5 8 9 g J T R 1 2 3 % 4 , O - + + ",
"+ + , 8 r t 0 0 0 0 q w 2 $ m 3 . F ;.-.6 ~ g J T R E d W S F . 3 m e o , = = , o e X X X X : 6 r y h K Q / q w 2 $ e o , = + + ",
"+ + & 9 y p u u u u i q 1 # n G F   <.,.>...f V C Z b A S D   F G n 3 e 4 * * 4 e 3 . . . .   7 t p j L ! _ i q 1 # 3 e 4 * + + ",
"O O f g h j a a a a u s t d b A S D . X o O O ; :   @ @ @ @ b A S D . X o O * 4 e 3 n G F   @ < 0 u a a a a x c v b n m M , O O ",
"o o V J K L a a a a z i H t E d W S . X o O > 5 6 7 < < < < E d W S . X o O = , o e m 3 . F @ < 0 u a a a a x c v b G 3 X M o o ",
"X X C T Q ! a a a a l P i s ( ) d A . X o O , 8 r t 0 0 0 0 ( ) d A . X o O - O , 4 M X 3 G @ < 0 u a a a a x c v b F . 3 m X X ",
". . Z R / _ a a a a k l z u i ( E b . X o O & 9 y p u u u u i ( E b . X o O + - = * , M m n @ < 0 u a a a a x c v b   F G n . . ",
"    b E ( i u z l k a a a a x c v b . X o O & ] [ j a a a a x c v b . X o O + - = * & % $ # d t s u a a a a x c v b   F G n . . ",
"    A d ) ( s i P l a a a a x c v b . X o O & ] [ j a a a a x c v b . X o O - O , 4 % 3 2 1 t H i z a a a a x c v b F . 3 m X X ",
"    S W d E t H i z a a a a x c v b . X o O & ] [ j a a a a x c v b . X o O = , o e $ 2 w q s i P l a a a a x c v b G 3 X M o o ",
"    D S A b d t s u a a a a x c v b . X o O & ] [ j a a a a x c v b . X o O * 4 e 3 # 1 q i u z l k a a a a x c v b n m M , O O ",
". . . . . . # 1 q i x x x x i q 1 # 3 e 4 * & 9 y p x x x x i q 1 # 3 e 4 * * 4 e 3 # 1 q i x x x x _ ! L j p t 7   3 e 4 * + + ",
"X X X X X X $ 2 w q c c c c q w 2 $ e o , = , 8 r t c c c c q w 2 $ e o , = = , o e $ 2 w q c c c c / Q K h y r 6 : e o , = + + ",
"o o o o o o % 3 2 1 v v v v 1 2 3 % 4 , O - > 5 6 7 v v v v 1 2 3 % 4 , O - - O , 4 % 3 2 1 v v v v R T J g 9 8 5 ; 4 , O - + + ",
"O O O O O O & % $ # b b b b # $ % & * = - + O ; :   b b b b # $ % & * = - + + - = * & % $ # b b b b Z C V f & , > O * = - + + + ",
"+ + + + + + * 4 e 3 . . . . 3 2.1., O O O O , M m n   F G n 3 2.1., O > , & & & & & ..>.,.<.  F G n :.&.#...& & & & B > N - + + ",
"+ + + + + + = , o e X X X X 2.% #.1.o o o o M X 3 G F . 3 m 2.% #.1.; 5 8 9 ] ] ] ] ~ 6 -.;.F . 3 m &.*.$ X.] ] ] ] Y U I N + + ",
"+ + + + + + - O , 4 o o o o 1.#.% 2.X X X X m 3 . F G 3 X M 1.#.% 2.: 6 r y [ [ [ [ %.o.@ Z G 3 X M #.$ $.o.[ [ [ [ ^ ~ U > + + ",
"+ + + + + + + - = * O O O O , 1.2.3 . . . . n G F   n m M , , 1.2.3   7 t p j j j j O.+.@.A n m M , ..X.o.` j j j j ` ^ Y B + + ",
"O O * = - + + + + + + - = * & % $ # @ @ @ @ @ @ @ @ # $ % & , M m n @ < 0 u a a a a u s t d # $ % & f g h j a a a a j h g f O O ",
"o o 4 , O - + + + + - O , 4 % 3 2 1 < < < < < < < < 1 2 3 % M X 3 G @ < 0 u a a a a z i H t 1 2 3 % V J K L a a a a L K J V o o ",
"X X e o , = + + + + = , o e $ 2 w q 0 0 0 0 0 0 0 0 q w 2 $ m 3 . F @ < 0 u a a a a l P i s q w 2 $ C T Q ! a a a a ! Q T C X X ",
". . 3 e 4 * + + + + * 4 e 3 # 1 q i u u u u u u u u i q 1 # n G F   @ < 0 u a a a a k l z u i q 1 # Z R / _ a a a a _ / R Z . . ",
"    n m M , * = - + * 4 e 3 # 1 q i u z l k a a a a x c v b   F G n # 1 q i u z l k a a a a x c v b b E ( i _ ! L j p t 7   . . ",
"    G 3 X M 4 , O - = , o e $ 2 w q s i P l a a a a x c v b F . 3 m $ 2 w q s i P l a a a a x c v b A d ) ( / Q K h y r 6 : X X ",
"    F . 3 m e o , = - O , 4 % 3 2 1 t H i z a a a a x c v b G 3 X M % 3 2 1 t H i z a a a a x c v b S W d E R T J g 9 8 5 ; o o ",
"      F G n 3 e 4 * + - = * & % $ # d t s u a a a a x c v b n m M , & % $ # d t s u a a a a x c v b D S A b Z C V f & , > O O O ",
"            . X o O + + + + O o X . @ < 0 u a a a a x c v b . X o O O o X . @ < 0 u a a a a x c v b         . X o O + + + + + + ",
"            . X o O + + + + O o X . @ < 0 u a a a a x c v b . X o O O o X . @ < 0 u a a a a x c v b         . X o O + + + + + + "
};
